<svg width="507.2785827636719" height="114.35495553734717" viewBox="0 0 369.66666666666663 83.33333333333334" class="looka-1j8o68f"><defs id="SvgjsDefs1011"></defs><g id="SvgjsG1012" featurekey="HdFLvg-0" transform="matrix(1.0491285970146196,0,0,1.0491285970146196,-5.600247762501465,-5.510023239440678)" fill="#46cdcf"><g xmlns="http://www.w3.org/2000/svg"><g><path d="M46.915,21.042c7.449,2.443,14.02,6.804,19.166,12.485c0.848-0.759,1.853-1.204,2.935-1.204    c0.318,0,0.628,0.046,0.93,0.119c1.905-5.317,2.582-11.045,1.712-16.869c-0.005-0.036-0.015-0.07-0.02-0.106    c-3.477-3.134-7.51-5.66-11.934-7.418C54.98,11.556,50.639,15.925,46.915,21.042z"></path><path d="M28.904,19.037c1.362-0.128,2.736-0.217,4.132-0.217c3.538,0,6.975,0.42,10.273,1.2    c3.812-5.188,8.263-9.599,13.099-13.112C52.811,5.834,49,5.252,45.053,5.252c-4.599,0-9.012,0.791-13.12,2.229    c-2.207,2.988-4.031,6.27-5.442,9.764C27.532,17.608,28.382,18.227,28.904,19.037z"></path><path d="M24.491,25.975c-0.186,0.044-0.371,0.08-0.555,0.11c-0.442,2.506-0.686,5.08-0.686,7.713    c0,7.583,1.928,14.706,5.286,20.945c0.724-0.094,1.476-0.094,2.236-0.01c0.404-7.833,2.356-15.948,6.043-23.786    c1.181-2.512,2.503-4.9,3.937-7.169c-3.191-0.727-6.513-1.111-9.926-1.111c-0.611,0-1.214,0.035-1.819,0.062    C28.246,24.214,26.596,25.474,24.491,25.975z"></path><path d="M44.387,24.787c-1.376,2.2-2.65,4.51-3.791,6.937C36.844,39.7,34.895,47.96,34.542,55.92    c1.455,0.791,2.627,1.886,3.45,3.135c10.846-2.31,19.98-8.167,26.049-15.942c-0.311-0.96-0.488-2.023-0.488-3.145    c0-0.909,0.12-1.778,0.327-2.586C58.658,31.616,51.971,27.211,44.387,24.787z"></path><path d="M22.531,59.003c0.47-1.112,1.226-2.028,2.162-2.733c-3.34-6.229-5.248-13.341-5.248-20.904    c0-3.264,0.39-6.432,1.065-9.493c-0.887-0.286-1.643-0.754-2.189-1.367c-3.298,0.964-6.444,2.282-9.379,3.936    c-2.307,5.033-3.604,10.627-3.604,16.526c0,3.39,0.427,6.679,1.226,9.819c4.722,2.561,10.047,4.277,15.701,4.977    C22.338,59.508,22.425,59.254,22.531,59.003z"></path><path d="M69.016,47.611c-0.785,0-1.531-0.235-2.205-0.653c-6.287,8.214-15.97,14.346-27.487,16.491    c-0.018,0.825-0.177,1.648-0.51,2.437c-0.165,0.389-0.372,0.749-0.601,1.092c7.665,6.794,17.687,10.978,28.696,11.146    c3.142-2.075,5.97-4.585,8.4-7.443c0.086-1.118,0.146-2.244,0.146-3.385c0-7.215-1.748-14.009-4.792-20.038    C70.143,47.486,69.59,47.611,69.016,47.611z"></path><path d="M35.538,69.516c1.102,5.429,3.034,10.499,5.73,14.982c1.247,0.117,2.508,0.185,3.786,0.185    c6.996,0,13.564-1.815,19.273-4.99c-0.181,0.002-0.358,0.017-0.538,0.017C53.046,79.709,43.209,75.874,35.538,69.516z"></path><path d="M27.726,69.419c-2.803-1.184-4.761-3.441-5.446-5.906c-5.334-0.966-10.326-2.846-14.733-5.483    c4.615,13.251,16.048,23.304,30.098,25.956c-2.532-4.14-4.393-8.798-5.554-13.777C30.672,70.278,29.176,70.032,27.726,69.419z"></path><path d="M22.377,17.097c0.373-0.089,0.744-0.147,1.11-0.183c1.285-2.793,2.84-5.435,4.65-7.882    c-7.197,3.394-13.207,8.884-17.247,15.686c2.082-1.193,4.273-2.213,6.547-3.064C17.716,19.635,19.673,17.741,22.377,17.097z"></path><path d="M84.769,44.968c0-10.614-4.172-20.248-10.955-27.373c0.149,0.699,0.28,1.406,0.387,2.122    c0.775,5.192,0.319,10.309-1.138,15.127c0.877,1.356,1.417,3.15,1.417,5.124c0,1.691-0.397,3.249-1.062,4.515    c2.711,5.758,4.245,12.18,4.245,18.967c0,1.522-0.085,3.023-0.234,4.507C82.044,61.467,84.769,53.538,84.769,44.968z"></path></g><ellipse transform="matrix(0.9211 0.3894 -0.3894 0.9211 26.735 -7.0147)" cx="30.672" cy="62.446" rx="4.609" ry="3.947"></ellipse><ellipse cx="69.016" cy="39.967" rx="2.314" ry="3.239"></ellipse><ellipse transform="matrix(0.9727 -0.2319 0.2319 0.9727 -4.3556 6.0223)" cx="23.434" cy="21.535" rx="2.598" ry="1.942"></ellipse></g></g><g id="SvgjsG1013" featurekey="VomJeJ-0" transform="matrix(3.19055588447696,0,0,3.19055588447696,98.15035549679395,-0.12235687613391732)" fill="#111111"><path d="M9.02 11.64 l-0.02 -1.48 l0 -3.82 q0.62 -0.12 1.61 -0.12 t1.59 0.12 l0 13.66 q-0.64 0.12 -1.6 0.12 t-1.6 -0.12 l0 -4.24 l0.02 -1.48 l-1 0.02 l-2.32 0 l-1 -0.02 l0.02 1.48 l0 4.24 q-0.62 0.12 -1.6 0.12 t-1.6 -0.12 l0 -13.66 q0.62 -0.12 1.6 -0.12 t1.6 0.12 l0 3.82 l-0.02 1.48 l1 -0.02 l2.32 0 z M23.4 18.56 q-0.1 0.42 -0.38 0.9 t-0.58 0.7 q-1.4 -0.04 -2.16 -1.06 q-1.3 1.2 -2.82 1.2 q-0.78 0 -1.36 -0.25 t-0.98 -0.67 t-0.6 -0.97 t-0.2 -1.15 q0 -0.86 0.31 -1.51 t0.85 -1.08 t1.26 -0.65 t1.54 -0.22 q0.46 0 0.81 0.01 t0.61 0.03 l0 -0.38 q0 -1.26 -1.3 -1.26 q-0.84 0 -2.94 0.64 q-0.6 -0.7 -0.76 -2.18 q0.48 -0.18 1.07 -0.34 t1.21 -0.28 t1.22 -0.19 t1.08 -0.07 q0.7 0 1.35 0.2 t1.14 0.61 t0.78 1.06 t0.29 1.55 l0 4.06 q0 0.92 0.56 1.3 z M17.36 17.06 q0 0.94 1.08 0.94 q0.56 0 1.26 -0.58 l0 -1.6 q-0.4 -0.02 -0.67 -0.03 t-0.41 -0.01 q-1.26 0 -1.26 1.28 z M24.580000000000002 11.46 q0.1 -0.4 0.38 -0.89 t0.56 -0.71 q1.84 0.14 2.56 1.82 q0.76 -1.8 2.5 -1.8 q0.52 0 1.32 0.16 q0 0.62 -0.21 1.47 t-0.57 1.45 q-0.34 -0.12 -1.02 -0.2 q-1 0 -1.64 1.02 l0 6.22 q-0.66 0.12 -1.55 0.12 t-1.57 -0.12 l0 -6.46 q0 -1.5 -0.76 -2.08 z M38.46 13.98 q0 -1.34 -0.9 -1.34 q-0.32 0 -0.65 0.19 t-0.67 0.49 l0 6.68 q-0.34 0.06 -0.74 0.09 t-0.82 0.03 t-0.82 -0.03 t-0.74 -0.09 l0 -9.98 l0.14 -0.14 l1.16 0 q1.28 0 1.68 1.26 q1.42 -1.3 2.76 -1.3 q1.62 0 2.34 1.38 q1.56 -1.38 2.96 -1.38 t2.09 0.87 t0.69 2.31 l0 4.48 q0 1.3 0.5 1.98 q-0.76 0.68 -1.82 0.68 q-1.04 0 -1.42 -0.48 t-0.38 -1.46 l0 -4.26 q0 -1.32 -0.94 -1.32 q-0.58 0 -1.28 0.7 l0 6.66 q-0.34 0.06 -0.74 0.09 t-0.82 0.03 t-0.83 -0.03 t-0.75 -0.09 l0 -6.02 z M56.48 10.9 q1.44 1.44 1.44 4.12 q0 1.2 -0.31 2.18 t-0.9 1.67 t-1.45 1.06 t-1.98 0.37 t-1.97 -0.38 t-1.44 -1.07 t-0.89 -1.67 t-0.3 -2.16 q0 -1.2 0.3 -2.17 t0.88 -1.67 t1.44 -1.08 t1.98 -0.38 q1.98 0 3.2 1.18 z M53.3 12.059999999999999 q-0.44 0 -0.71 0.21 t-0.43 0.57 t-0.22 0.83 t-0.06 1.01 q0 0.84 0.05 1.45 t0.2 1.02 t0.42 0.61 t0.71 0.2 q0.88 0 1.16 -0.77 t0.28 -2.19 q0 -1.44 -0.28 -2.19 t-1.12 -0.75 z M68.32 13.4 l0 4.1 q0 1.32 0.48 1.98 q-0.76 0.68 -1.82 0.68 q-1.04 0 -1.42 -0.48 t-0.38 -1.46 l0 -4.26 q0 -0.68 -0.18 -1 t-0.7 -0.32 q-0.3 0 -0.68 0.16 t-0.78 0.52 l0 6.68 q-0.34 0.06 -0.74 0.09 t-0.82 0.03 t-0.82 -0.03 t-0.74 -0.09 l0 -9.98 l0.14 -0.14 l1.18 0 q1.22 0 1.64 1.2 q1.4 -1.24 2.78 -1.24 q1.4 0 2.13 0.97 t0.73 2.59 z M74.25999999999999 12.32 l0 7.68 q-0.34 0.06 -0.74 0.09 t-0.82 0.03 t-0.83 -0.03 t-0.75 -0.09 l0 -6.62 q0 -1.16 -0.94 -1.16 l-0.3 0 q-0.12 -0.38 -0.12 -1.06 q0 -0.66 0.12 -1.12 q0.52 -0.04 0.96 -0.07 t0.8 -0.03 l0.44 0 q1.02 0 1.6 0.64 t0.58 1.74 z M70.75999999999999 6 q0.58 -0.32 1.5 -0.32 q0.94 0 1.46 0.32 q0.24 0.54 0.24 1.16 t-0.24 1.16 q-0.58 0.3 -1.52 0.3 t-1.44 -0.3 q-0.24 -0.54 -0.24 -1.16 t0.24 -1.16 z M85.1 18.56 q-0.1 0.42 -0.38 0.9 t-0.58 0.7 q-1.4 -0.04 -2.16 -1.06 q-1.3 1.2 -2.82 1.2 q-0.78 0 -1.36 -0.25 t-0.98 -0.67 t-0.6 -0.97 t-0.2 -1.15 q0 -0.86 0.31 -1.51 t0.85 -1.08 t1.26 -0.65 t1.54 -0.22 q0.46 0 0.81 0.01 t0.61 0.03 l0 -0.38 q0 -1.26 -1.3 -1.26 q-0.84 0 -2.94 0.64 q-0.6 -0.7 -0.76 -2.18 q0.48 -0.18 1.07 -0.34 t1.21 -0.28 t1.22 -0.19 t1.08 -0.07 q0.7 0 1.35 0.2 t1.14 0.61 t0.78 1.06 t0.29 1.55 l0 4.06 q0 0.92 0.56 1.3 z M79.05999999999999 17.06 q0 0.94 1.08 0.94 q0.56 0 1.26 -0.58 l0 -1.6 q-0.4 -0.02 -0.67 -0.03 t-0.41 -0.01 q-1.26 0 -1.26 1.28 z"></path></g></svg>